Patient4_TMGait_0pt3_02_right_09_GRF.mot
version=1
nRows=26
nColumns=19
inDegrees=no
endheader
time	F1x	F1y	F1z	M1x	M1y	M1z	F2x	F2y	F2z	M2x	M2y	M2z	EC1x	EC1y	EC1z	EC2x	EC2y	EC2z
16.53	-8.0142	753.4465	36.3403	-287.2511	-37.9371	705.9017	-8.3283	-12.5381	1.1403	-2.2683	1.4237	-12.2759	-0.0592	0.0182	-0.0073	-0.0462	0.0165	0.9585
16.5496	-9.6233	772.3906	36.8153	-294.5847	-38.1209	722.5397	-5.5834	-7.5829	0.79338	-1.2287	0.95517	-7.3211	-0.0592	0.0182	-0.0073	-0.0462	0.0165	0.9585
16.5691	-10.9649	795.7131	37.7037	-303.4881	-38.6025	742.7649	-3.2582	-3.3682	0.49848	-0.34148	0.55542	-3.0997	-0.0592	0.0182	-0.0073	-0.0462	0.0165	0.9585
16.5887	-11.7371	821.2636	38.9791	-313.1189	-39.3002	764.5236	-1.4879	-0.14088	0.27023	0.34225	0.25182	0.13751	-0.0592	0.0182	-0.0073	-0.0462	0.0165	0.9585
16.6083	-11.711	845.8356	40.5143	-322.2495	-40.0439	784.8347	-0.26598	2.1033	0.10546	0.82325	0.047366	2.3877	-0.0592	0.0182	-0.0073	-0.0462	0.0165	0.9585
16.6279	-10.7474	865.8093	42.1219	-329.5103	-40.6228	800.3854	0.49091	3.4999	-0.0050221	1.1278	-0.072272	3.7769	-0.0592	0.0182	-0.0073	-0.0462	0.0165	0.9585
16.6474	-8.8096	877.9081	43.5977	-333.6763	-40.8318	808.2351	0.8946	4.2236	-0.071153	1.2873	-0.12852	4.4817	-0.0592	0.0182	-0.0073	-0.0462	0.0165	0.9585
16.667	-5.9709	879.9276	44.7591	-333.9366	-40.516	806.4716	1.0549	4.4374	-0.10106	1.3285	-0.14451	4.6712	-0.0592	0.0182	-0.0073	-0.0462	0.0165	0.9585
16.6866	-2.3878	871.2965	45.4706	-330.1006	-39.5884	794.705	1.0605	4.2669	-0.10421	1.2696	-0.13868	4.4724	-0.0592	0.0182	-0.0073	-0.0462	0.0165	0.9585
16.7061	1.7218	853.2263	45.6759	-322.649	-38.0541	774.1866	0.97752	3.7921	-0.088755	1.1178	-0.125	3.9687	-0.0592	0.0182	-0.0073	-0.0462	0.0165	0.9585
16.7257	6.1142	828.418	45.41	-312.622	-36.0097	747.5068	0.85414	3.0513	-0.0625	0.87061	-0.11149	3.196	-0.0592	0.0182	-0.0073	-0.0462	0.0165	0.9585
16.7453	10.5955	800.4463	44.78	-301.3906	-33.599	717.991	0.7265	2.0559	-0.03262	0.52233	-0.10341	2.1596	-0.0592	0.0182	-0.0073	-0.0462	0.0165	0.9585
16.7649	15.0465	773.027	43.9344	-290.3789	-30.9762	689.0347	0.62058	0.813	-0.0029876	0.070575	-0.1069	0.87008	-0.0592	0.0182	-0.0073	-0.0462	0.0165	0.9585
16.7844	19.4019	749.3462	43.0308	-280.8075	-28.2871	663.5062	0.55377	-0.63391	0.025506	-0.46946	-0.13103	-0.62182	-0.0592	0.0182	-0.0073	-0.0462	0.0165	0.9585
16.804	23.6269	731.6197	42.2234	-273.5157	-25.6673	643.3734	0.54031	-2.1587	0.052375	-1.0478	-0.17965	-2.1873	-0.0592	0.0182	-0.0073	-0.0462	0.0165	0.9585
16.8236	27.6975	720.8853	41.6577	-268.8814	-23.2488	629.5539	0.59201	-3.4961	0.074911	-1.5595	-0.25063	-3.5628	-0.0592	0.0182	-0.0073	-0.0462	0.0165	0.9585
16.8431	31.5738	716.9757	41.4545	-266.8162	-21.1606	621.9221	0.7191	-4.1855	0.0846	-1.824	-0.33314	-4.284	-0.0592	0.0182	-0.0073	-0.0462	0.0165	0.9585
16.8627	35.1863	718.6666	41.6854	-266.8275	-19.5091	619.4508	0.92762	-3.5278	0.0657	-1.5685	-0.40693	-3.6401	-0.0592	0.0182	-0.0073	-0.0462	0.0165	0.9585
16.8823	38.4153	723.9409	42.3598	-268.1269	-18.3704	620.4599	1.2091	-0.56461	-0.0050759	-0.41838	-0.43642	-0.65354	-0.0592	0.0182	-0.0073	-0.0462	0.0165	0.9585
16.9019	41.0751	730.2871	43.4238	-269.7487	-17.7916	622.8809	1.535	5.8873	-0.15941	2.0911	-0.37028	5.8845	-0.0592	0.0182	-0.0073	-0.0462	0.0165	0.9585
16.9214	42.9454	735.0151	44.7556	-270.6762	-17.7776	624.5063	1.8487	17.1168	-0.43187	6.4688	-0.14256	17.2983	-0.0592	0.0182	-0.0073	-0.0462	0.0165	0.9585
16.941	43.8395	735.5616	46.1729	-269.9609	-18.2683	623.2218	2.0531	34.2787	-0.85111	13.1714	0.32393	34.7858	-0.0592	0.0182	-0.0073	-0.0462	0.0165	0.9585
16.9606	43.6561	729.751	47.4641	-266.8149	-19.1436	617.2076	1.9874	57.9815	-1.4294	22.4412	1.1099	58.9941	-0.0592	0.0182	-0.0073	-0.0462	0.0165	0.9585
16.9801	42.4151	716.1027	48.4252	-260.7215	-20.2374	605.1829	1.3249	87.7586	-2.1535	34.1001	2.324	89.4759	-0.0592	0.0182	-0.0073	-0.0462	0.0165	0.9585
16.9997	40.2526	694.1655	48.8886	-251.5558	-21.3646	586.6857	-0.37207	121.7904	-3.0933	47.4258	4.1921	124.418	-0.0592	0.0182	-0.0073	-0.0462	0.0165	0.9585
17.0193	37.4353	664.7507	48.7622	-239.6675	-22.3493	562.2612	-3.2571	157.3242	-4.585	61.2946	7.0945	161.0635	-0.0592	0.0182	-0.0073	-0.0462	0.0165	0.9585
